# xmcd
#
# Track frame offsets: 
#        182
#        13782
#        32125
#        49655
#        61252
#        77400
#        99700
#        118777
#        144562
#        157940
#
# Disc length: 2475 seconds
#
# Revision: 3
# Processed by: cddbd v1.5.2PL0 Copyright (c) Steve Scherf et al.
# Submitted via: ExactAudioCopy v0.99pb5
#
DISCID=7a09a90a
DTITLE=Exile - The Best of Exile
DYEAR=1990
DGENRE=Country
TTITLE0=Stay with me
TTITLE1=Take this heart
TTITLE2=You thrill me
TTITLE3=Dixie girl
TTITLE4=One more night for love
TTITLE5=Kiss you all over
TTITLE6=The closer you get
TTITLE7=Never gonna stop
TTITLE8=Someone like you
TTITLE9=Heart and soul
EXTD=
EXTT0=
EXTT1=
EXTT2=
EXTT3=
EXTT4=
EXTT5=
EXTT6=
EXTT7=
EXTT8=
EXTT9=
PLAYORDER=
